<svg width="42" height="37" viewBox="0 0 42 37" fill="none" xmlns="http://www.w3.org/2000/svg">
<g clip-path="url(#clip0_17:91)">
<path fill-rule="evenodd" clip-rule="evenodd" d="M30.071 22.1723C29.5907 21.9426 27.2357 20.8357 26.7973 20.6815C26.3588 20.5289 26.0397 20.4534 25.7189 20.9128C25.3998 21.3691 24.4826 22.402 24.2037 22.7073C23.9233 23.0141 23.6444 23.0511 23.1657 22.8229C22.6869 22.5916 21.1428 22.1091 19.3133 20.5489C17.89 19.3341 16.9277 17.8341 16.6488 17.3746C16.37 16.9168 16.6182 16.6686 16.8584 16.4404C17.0744 16.2354 17.3371 15.9054 17.5773 15.6387C17.8174 15.3705 17.8964 15.1793 18.056 14.8725C18.2172 14.5673 18.1366 14.3006 18.0157 14.0709C17.8964 13.8411 16.939 11.5857 16.5392 10.6684C16.1508 9.77577 15.7558 9.89756 15.4625 9.88215C15.182 9.86981 14.8629 9.86673 14.5437 9.86673C14.2245 9.86673 13.7055 9.98081 13.2671 10.4402C12.827 10.8981 11.5907 12.0066 11.5907 14.262C11.5907 16.5159 13.3058 18.6943 13.5459 19.0011C13.7861 19.3064 16.9228 23.9344 21.7279 25.9186C22.8723 26.3903 23.7637 26.6724 24.4584 26.8821C25.6061 27.2321 26.6506 27.1827 27.4759 27.064C28.3946 26.933 30.3096 25.9556 30.7093 24.8856C31.1074 23.8157 31.1074 22.8984 30.9882 22.7073C30.8689 22.5161 30.5497 22.402 30.0694 22.1723H30.071ZM21.3314 33.5853H21.3249C18.4709 33.5858 15.6694 32.852 13.2139 31.4609L12.6336 31.1309L6.60194 32.6449L8.21221 27.0209L7.83342 26.4443C6.23787 24.0151 5.3935 21.2038 5.39786 18.3351C5.40108 9.93302 12.5482 3.09727 21.3378 3.09727C25.5932 3.09727 29.5939 4.68519 32.6017 7.56502C34.0852 8.97808 35.2611 10.6585 36.0612 12.509C36.8614 14.3595 37.2699 16.3434 37.2632 18.3459C37.26 26.748 30.1129 33.5853 21.3314 33.5853ZM34.8905 5.3774C33.1146 3.66757 31.0014 2.31185 28.6736 1.3888C26.3458 0.465745 23.8497 -0.00628421 21.3297 6.31737e-05C10.7654 6.31737e-05 2.16441 8.22485 2.16119 18.3336C2.15958 21.5649 3.04128 24.7191 4.71925 27.4988L2 37.0001L12.1613 34.4501C14.9723 35.9149 18.1222 36.6824 21.3233 36.6825H21.3314C31.8957 36.6825 40.4967 28.4577 40.4999 18.3474C40.5077 15.9382 40.016 13.5515 39.0531 11.3252C38.0903 9.09893 36.6755 7.07735 34.8905 5.3774Z" fill="#FFF5FD"/>
</g>
<defs>
<clipPath id="clip0_17:91">
<rect width="42" height="37" fill="white"/>
</clipPath>
</defs>
</svg>
