<svg width="32" height="33" viewBox="0 0 32 33" fill="none" xmlns="http://www.w3.org/2000/svg">
<path d="M20.625 16.4062C20.625 17.4446 20.3318 18.4596 19.7823 19.323C19.2329 20.1864 18.452 20.8593 17.5384 21.2566C16.6248 21.654 15.6195 21.7579 14.6495 21.5554C13.6796 21.3528 12.7887 20.8528 12.0895 20.1186C11.3902 19.3843 10.914 18.4489 10.7211 17.4305C10.5281 16.4121 10.6272 15.3565 11.0056 14.3972C11.384 13.4378 12.0249 12.6179 12.8471 12.041C13.6694 11.4642 14.6361 11.1562 15.625 11.1562C16.9506 11.1579 18.2215 11.7115 19.1588 12.6957C20.0962 13.6799 20.6235 15.0144 20.625 16.4062ZM31.25 9.1875V23.625C31.2474 26.0608 30.3246 28.3961 28.6843 30.1185C27.0439 31.8409 24.8198 32.8097 22.5 32.8125H8.75C6.43017 32.8097 4.20611 31.8409 2.56574 30.1185C0.925369 28.3961 0.0026467 26.0608 0 23.625V9.1875C0.0026467 6.75168 0.925369 4.41641 2.56574 2.69403C4.20611 0.971638 6.43017 0.00277904 8.75 0H22.5C24.8198 0.00277904 27.0439 0.971638 28.6843 2.69403C30.3246 4.41641 31.2474 6.75168 31.25 9.1875ZM23.125 16.4062C23.125 14.8487 22.6851 13.3262 21.861 12.0311C21.0369 10.7361 19.8656 9.72674 18.4951 9.1307C17.1247 8.53466 15.6167 8.37871 14.1618 8.68257C12.707 8.98643 11.3706 9.73645 10.3217 10.8378C9.27281 11.9391 8.5585 13.3423 8.26911 14.8699C7.97972 16.3975 8.12825 17.9809 8.6959 19.4199C9.26356 20.8589 10.2249 22.0888 11.4582 22.9541C12.6916 23.8194 14.1416 24.2812 15.625 24.2812C17.6134 24.2789 19.5198 23.4485 20.9258 21.9721C22.3319 20.4958 23.1228 18.4941 23.125 16.4062ZM25.625 7.875C25.625 7.48562 25.515 7.10498 25.309 6.78122C25.103 6.45746 24.8101 6.20512 24.4675 6.05611C24.1249 5.9071 23.7479 5.86811 23.3842 5.94408C23.0205 6.02004 22.6864 6.20755 22.4242 6.48288C22.162 6.75822 21.9834 7.10902 21.911 7.49092C21.8387 7.87282 21.8758 8.26867 22.0177 8.62841C22.1596 8.98815 22.4 9.29563 22.7083 9.51196C23.0166 9.72828 23.3792 9.84375 23.75 9.84375C24.2473 9.84375 24.7242 9.63633 25.0758 9.26712C25.4275 8.8979 25.625 8.39715 25.625 7.875Z" fill="#FFF5FD"/>
</svg>
